<svg width="135" height="168" viewBox="0 0 135 168" fill="none" xmlns="http://www.w3.org/2000/svg">
<path d="M1 167.855V106.331L134 1" stroke="#272727" stroke-width="0.604545"/>
<path d="M10.6937 91.0918C10.1694 91.5112 9.60849 91.6275 9.01105 91.4406C8.41802 91.2502 7.81135 90.7673 7.19104 89.9918C6.56369 89.2075 6.22403 88.5073 6.17209 87.8914C6.12102 87.2675 6.35766 86.7458 6.88201 86.3264C7.41076 85.9035 7.96989 85.785 8.55939 85.971C9.1489 86.1569 9.75733 86.6421 10.3847 87.4264C11.005 88.2019 11.3424 88.9038 11.397 89.5321C11.4481 90.156 11.2137 90.6759 10.6937 91.0918ZM10.403 90.7282C10.8039 90.4075 10.9692 90.0044 10.8987 89.5188C10.8283 89.0333 10.5181 88.4468 9.9683 87.7595C9.41143 87.0633 8.90742 86.6319 8.45626 86.4653C8.00598 86.2908 7.57815 86.3657 7.17278 86.6899C6.77181 87.0107 6.60479 87.4116 6.67173 87.8927C6.73866 88.3739 7.0488 88.9603 7.60215 89.6521C8.15196 90.3395 8.65598 90.7709 9.11419 90.9463C9.5724 91.1216 10.002 91.049 10.403 90.7282ZM14.6568 87.9218C14.1324 88.3412 13.5715 88.4575 12.9741 88.2706C12.3811 88.0803 11.7744 87.5973 11.1541 86.8218C10.5267 86.0375 10.1871 85.3374 10.1351 84.7214C10.0841 84.0975 10.3207 83.5759 10.845 83.1564C11.3738 82.7335 11.9329 82.615 12.5224 82.801C13.1119 82.987 13.7204 83.4721 14.3477 84.2564C14.968 85.0319 15.3055 85.7338 15.3601 86.3621C15.4111 86.986 15.1767 87.5059 14.6568 87.9218ZM14.366 87.5583C14.767 87.2376 14.9322 86.8344 14.8618 86.3489C14.7913 85.8633 14.4812 85.2769 13.9313 84.5895C13.3745 83.8933 12.8705 83.4619 12.4193 83.2953C11.969 83.1208 11.5412 83.1957 11.1358 83.52C10.7348 83.8407 10.5678 84.2416 10.6348 84.7228C10.7017 85.2039 11.0118 85.7904 11.5652 86.4821C12.115 87.1695 12.619 87.6009 13.0772 87.7763C13.5354 87.9517 13.965 87.879 14.366 87.5583ZM17.4605 85.5924L17.175 85.2355L18.2458 84.3791L15.2112 80.5853L14.8027 81.8225L14.3691 81.6598L14.9165 79.9865L15.2073 79.7539L18.6489 84.0566L19.6536 83.253L19.939 83.6099L17.4605 85.5924Z" fill="#272727"/>
</svg>
